<?xml version="1.0" ?><svg enable-background="new 0 0 64 64" height="64px" id="Layer_1" version="1.1" viewBox="0 0 64 64" width="64px" xml:space="preserve" xmlns="http://www.w3.org/2000/svg" xmlns:xlink="http://www.w3.org/1999/xlink"><circle cx="32" cy="32" fill="#76C2AF" r="32"/><path d="M18.414,50.414c-0.781,0.781-2.047,0.781-2.828,0l0,0c-0.781-0.781-0.781-2.047,0-2.828  l9.899-9.899c0.781-0.781,2.047-0.781,2.828,0l0,0c0.781,0.781,0.781,2.047,0,2.828L18.414,50.414z" fill="#231F20" opacity="0.2"/><path d="M31.142,26.372c-0.781,0.781-2.047,0.781-2.828,0l0,0c-0.781-0.781-0.781-2.047,0-2.828  l9.899-9.899c0.781-0.781,2.047-0.781,2.828,0l0,0c0.781,0.781,0.781,2.047,0,2.828L31.142,26.372z" fill="#231F20" opacity="0.2"/><path d="M42.456,37.686c-0.781,0.781-2.047,0.781-2.828,0l0,0c-0.781-0.781-0.781-2.047,0-2.829  l9.9-9.899c0.781-0.781,2.047-0.781,2.828,0l0,0c0.781,0.781,0.781,2.047,0,2.829L42.456,37.686z" fill="#231F20" opacity="0.2"/><path d="M18.414,48.414c-0.781,0.781-2.047,0.781-2.828,0l0,0c-0.781-0.781-0.781-2.047,0-2.828l9.899-9.9  c0.781-0.781,2.047-0.781,2.828,0l0,0c0.781,0.781,0.781,2.047,0,2.828L18.414,48.414z" fill="#4F5D73"/><path d="M31.142,24.373c-0.781,0.781-2.047,0.781-2.828,0l0,0c-0.781-0.781-0.781-2.047,0-2.828l9.899-9.9  c0.781-0.781,2.047-0.781,2.828,0l0,0c0.781,0.781,0.781,2.047,0,2.828L31.142,24.373z" fill="#E0E0D1"/><path d="M42.456,35.686c-0.781,0.781-2.047,0.781-2.828,0l0,0c-0.781-0.781-0.781-2.047,0-2.828l9.9-9.899  c0.781-0.781,2.047-0.781,2.828,0l0,0c0.781,0.781,0.781,2.047,0,2.828L42.456,35.686z" fill="#E0E0D1"/><path d="M27.874,19.348l-8.046,8.046c-4.296,4.296-4.296,11.261,0,15.556l2.829,2.828  c4.296,4.296,11.26,4.296,15.556,0l8.046-8.046L27.874,19.348z" fill="#231F20" opacity="0.2"/><path d="M27.874,17.741l-8.046,8.046c-4.296,4.296-4.296,11.261,0,15.556l2.829,2.828  c4.296,4.296,11.26,4.296,15.556,0l8.046-8.046L27.874,17.741z" fill="#4F5D73"/><path d="M48.113,40.415c-0.781,0.781-2.047,0.781-2.828,0L25.485,20.616  c-0.781-0.781-0.781-2.047,0-2.828l0,0c0.781-0.781,2.047-0.781,2.828,0l19.799,19.799C48.894,38.367,48.894,39.634,48.113,40.415  L48.113,40.415z" fill="#231F20" opacity="0.2"/><path d="M48.113,38.515c-0.781,0.781-2.047,0.781-2.828,0L25.485,18.716c-0.781-0.781-0.781-2.047,0-2.828l0,0  c0.781-0.781,2.047-0.781,2.828,0l19.799,19.799C48.894,36.467,48.894,37.734,48.113,38.515L48.113,38.515z" fill="#4F5D73"/></svg>